<svg viewBox="0 0 48 48" xmlns="http://www.w3.org/2000/svg" xmlns:x="http://www.w3.org/1999/xlink"><defs><rect id="a" x="0" y="0" width="38" height="38" rx="8"/></defs><g transform="translate(5 5)" fill="none" fill-rule="evenodd"><mask id="b" fill="#ffffff"><use x:href="#a"/></mask><use fill="#E7EAF0" x:href="#a"/><path d="M8 4a4 4 0 110 8 4 4 0 010-8zm22 0a4 4 0 110 8 4 4 0 010-8zM19 4a4 4 0 110 8 4 4 0 010-8z" fill="#EA4335" mask="url(#b)"/><path d="M30 26a4 4 0 110 8 4 4 0 010-8zm0-11a4 4 0 110 8 4 4 0 010-8zm-11 0a4 4 0 110 8 4 4 0 010-8z" fill="#4285F4" mask="url(#b)"/><path d="M19 26a4 4 0 110 8 4 4 0 010-8zM8 26a4 4 0 110 8 4 4 0 010-8z" fill="#34A853" mask="url(#b)"/><circle fill="#FBBC05" mask="url(#b)" cx="8" cy="19" r="4"/></g></svg>